# xmcd
#
# Track frame offsets:
#	150
#	17230
#	37546
#	53109
#	66159
#	83922
#	105909
#	125110
#	141569
#	160798
#	180824
#	204057
#	223164
#	244481
#	266255
#	285086
#	305459
#	323471
#
# Disc length: 4557 seconds
#
# Revision: 0
# Processed by: cddbd v1.5.2PL0 Copyright (c) Steve Scherf et al.
# Submitted via: dBpowerAMP V4.0
#
DISCID=eb11cb12
DTITLE=semi cad - semi cad
DYEAR=1900
DGENRE=
TTITLE0=cad1 
TTITLE1=cad2
TTITLE2=cad3
TTITLE3=cad4
TTITLE4=cad5
TTITLE5=cad6
TTITLE6=cad7
TTITLE7=cad8
TTITLE8=cad9
TTITLE9=cad10
TTITLE10=cad11
TTITLE11=cad12
TTITLE12=cad13
TTITLE13=cad14
TTITLE14=cad15
TTITLE15=cad16
TTITLE16=cad17
TTITLE17=cad18
EXTD=funeral hearse
EXTT0=
EXTT1=
EXTT2=
EXTT3=
EXTT4=
EXTT5=
EXTT6=
EXTT7=
EXTT8=
EXTT9=
EXTT10=
EXTT11=
EXTT12=
EXTT13=
EXTT14=
EXTT15=
EXTT16=
EXTT17=
PLAYORDER=
